# xmcd
# 
# Track frame offsets:
#     150
#     17072
#     35870
#     58602
#     75060
#     91915
#     114792
#     138135
#     165195
#     183860
# 
# Disc length: 2760
# 
# Revision: 1
# Processed by: cddbd v1.5.2PL0 Copyright (c) Steve Scherf et al.
# Submitted via: fre:ac v1.0.31
# 
DISCID=640ac60a
DTITLE=Ing Project - Get The Glory 輝煌的瞬間
DYEAR=1989
DGENRE=Jazz
TTITLE0=Silent Day
TTITLE1=Tokio Cambodia
TTITLE2=Another Station
TTITLE3=London Night
TTITLE4=Get The Glory
TTITLE5=Beauty Maniaxx
TTITLE6=Warning
TTITLE7=Ballad
TTITLE8=Bright and Shadow
TTITLE9=Happy Birthday
EXTD=YEAR: 1989
EXTT0=
EXTT1=
EXTT2=
EXTT3=
EXTT4=
EXTT5=
EXTT6=
EXTT7=
EXTT8=
EXTT9=
PLAYORDER=
